<?xml version="1.0" encoding="utf-8"?>
<!-- Generator: Adobe Illustrator 22.1.0, SVG Export Plug-In . SVG Version: 6.00 Build 0)  -->
<svg version="1.1" id="Layer_1" xmlns="http://www.w3.org/2000/svg" xmlns:xlink="http://www.w3.org/1999/xlink" x="0px" y="0px"
	 viewBox="0 0 850.4 439.4" style="enable-background:new 0 0 850.4 439.4;" xml:space="preserve">
<style type="text/css">
	.st0{fill:#DC1E35;}
</style>
<g>
	<path class="st0" d="M528.1,105.2c29,0,52.6,23.6,52.6,52.6s-23.5,52.6-52.6,52.6c-29.1,0-52.6-23.5-52.6-52.6
		C475.6,128.8,499.1,105.2,528.1,105.2"/>
	<path class="st0" d="M743.2,166.5c2.6-5.4,2.5-7.3,1.2-8.2c-1.5-1.2-2.9-0.3-6.6,3.5c-79.5,81-131.4,105.3-209.7,105.3
		c-102.6,0-144.4-79.1-246.9-104.4c-56.4-13.9-124.8,1.7-170.5,28.8c-3.2,1.9-6.2,3.5-5.5,5.8c0.5,1.9,2.1,2.1,7.7,1.2
		c167.5-27.2,195.4,72.8,317,117.7C619.2,386.1,726.3,201.1,743.2,166.5"/>
</g>
</svg>
