<?xml version="1.0" encoding="utf-8"?>
<!-- Generator: Adobe Illustrator 22.1.0, SVG Export Plug-In . SVG Version: 6.00 Build 0)  -->
<svg version="1.1" id="Layer_1" xmlns="http://www.w3.org/2000/svg" xmlns:xlink="http://www.w3.org/1999/xlink" x="0px" y="0px"
	 viewBox="0 0 955.3 569.8" style="enable-background:new 0 0 955.3 569.8;" xml:space="preserve">
<style type="text/css">
	.st0{fill:#FFFFFF;}
</style>
<g>
	<path class="st0" d="M851.5,394.5c0-3.9-2.8-6.6-6.6-6.6c-3.9,0-6.6,2.8-6.6,6.6c0,3.9,2.8,6.6,6.6,6.6
		C848.7,401.1,851.5,398.3,851.5,394.5 M850.4,411h-11v52.9h11V411z M828.3,411h-13.2l-22.6,23.7v-47.9h-11v77.1h11V449l8.3-8.8
		l17.1,23.7H830L808,433L828.3,411z M727.6,411h-11v52.9h11v-28.6c0-9.9,5.5-15.4,13.8-15.4c7.2,0,12.7,5.5,12.7,13.2v30.8h11V433
		c0-14.3-8.8-23.1-21.5-23.1c-9.9,0-16,6.6-16,6.6V411z M675.8,455c-6.1,0-9.4-3.3-9.4-6.6c0-3.9,2.8-6.5,6.6-7.2l17.1-2.8v1.1
		C690.2,449.5,684.6,455,675.8,455 M701.2,463.8v-34.1c0-11-8.8-19.8-22-19.8c-13.8,0-20.9,9.9-20.9,9.9l7.2,7.2
		c0,0,4.4-7.2,13.8-7.2c6.6,0,11,4.4,11,9.9l-19.3,3.3c-9.4,1.7-15.4,7.7-15.4,16.5c0,7.7,7.7,15.4,18.7,15.4c9.9,0,16-6.6,16-6.6
		v5.5H701.2z M619.7,455c-8.3,0-16-7.7-16-17.6c0-9.9,7.7-17.6,16-17.6s16,7.7,16,17.6C635.6,447.3,627.9,455,619.7,455
		 M620.8,409.9c-10.5,0-17.1,7.2-17.1,7.2v-30.3h-11v77.1h11v-6.1c0,0,6.6,7.2,17.1,7.2c13.8,0,25.9-12.1,25.9-27.5
		C646.7,422,634.5,409.9,620.8,409.9 M577.3,417c0,0-5.5-7.2-17.1-7.2c-11,0-18.7,7.7-18.7,15.4c0,18.7,27,13.2,27,23.1
		c0,3.9-2.8,6.6-8.8,6.6c-8.3,0-13.2-6.6-13.2-6.6l-7.2,7.2c0,0,6.6,9.4,20.4,9.4c12.1,0,19.8-7.7,19.8-16.5c0-18.7-27-13.2-27-23.1
		c0-2.8,2.8-5.5,7.7-5.5c6.1,0,9.9,4.4,9.9,4.4L577.3,417z M500.2,455c-8.3,0-16-7.7-16-17.6c0-9.9,7.7-17.6,16-17.6s16,7.7,16,17.6
		C516.2,447.3,508.5,455,500.2,455 M499.1,409.9c-13.8,0-25.9,12.1-25.9,27.5c0,15.4,12.1,27.5,25.9,27.5c10.5,0,17.1-7.2,17.1-7.2
		v6.1h11v-77.1h-11V417C516.2,417,509.6,409.9,499.1,409.9 M423.7,411h-11v52.9h11v-28.6c0-9.9,5.5-15.4,13.8-15.4
		c7.2,0,12.7,5.5,12.7,13.2v30.8h11V433c0-14.3-8.8-23.1-21.5-23.1c-9.9,0-16,6.6-16,6.6V411z M371.9,455c-6.1,0-9.4-3.3-9.4-6.6
		c0-3.9,2.8-6.5,6.6-7.2l17.1-2.8v1.1C386.2,449.5,380.7,455,371.9,455 M397.2,463.8v-34.1c0-11-8.8-19.8-22-19.8
		c-13.8,0-20.9,9.9-20.9,9.9l7.2,7.2c0,0,4.4-7.2,13.8-7.2c6.6,0,11,4.4,11,9.9L367,433c-9.4,1.7-15.4,7.7-15.4,16.5
		c0,7.7,7.7,15.4,18.7,15.4c9.9,0,16-6.6,16-6.6v5.5H397.2z M338.3,386.7h-11v77.1h11V386.7z M311.9,417c0,0-5.5-7.2-17.1-7.2
		c-11,0-18.7,7.7-18.7,15.4c0,18.7,27,13.2,27,23.1c0,3.9-2.8,6.6-8.8,6.6c-8.3,0-13.2-6.6-13.2-6.6l-7.2,7.2c0,0,6.6,9.4,20.4,9.4
		c12.1,0,19.8-7.7,19.8-16.5c0-18.7-27-13.2-27-23.1c0-2.8,2.8-5.5,7.7-5.5c6.1,0,9.9,4.4,9.9,4.4L311.9,417z M250.2,376.8h8.3
		l11.6-15.4h-11.6L250.2,376.8z M248,463.8h12.1v-77.1H248V463.8z"/>
	<path class="st0" d="M526.9,105.2c29,0,52.6,23.6,52.6,52.6c0,29-23.5,52.6-52.6,52.6c-29.1,0-52.6-23.5-52.6-52.6
		C474.3,128.8,497.8,105.2,526.9,105.2"/>
	<path class="st0" d="M743.2,168.2c2.6-5.4,2.5-7.3,1.2-8.2c-1.5-1.2-2.9-0.3-6.6,3.5c-79.5,81-131.4,105.3-209.7,105.3
		c-102.6,0-144.4-79.1-246.9-104.4c-56.4-13.9-124.8,1.7-170.5,28.8c-3.2,1.9-6.2,3.5-5.5,5.8c0.5,1.9,2.1,2.1,7.7,1.2
		c167.5-27.2,195.4,72.8,317,117.7C619.2,387.7,726.3,202.8,743.2,168.2"/>
</g>
</svg>
