<?xml version="1.0" encoding="utf-8"?>
<!-- Generator: Adobe Illustrator 22.1.0, SVG Export Plug-In . SVG Version: 6.00 Build 0)  -->
<svg version="1.1" id="Layer_1" xmlns="http://www.w3.org/2000/svg" xmlns:xlink="http://www.w3.org/1999/xlink" x="0px" y="0px"
	 viewBox="0 0 1720.6 439.4" style="enable-background:new 0 0 1720.6 439.4;" xml:space="preserve">
<style type="text/css">
	.st0{fill:#FFFFFF;}
</style>
<g>
	<path class="st0" d="M528.1,105.2c29,0,52.6,23.6,52.6,52.6c0,29-23.5,52.6-52.6,52.6c-29.1,0-52.6-23.5-52.6-52.6
		C475.6,128.8,499.1,105.2,528.1,105.2"/>
	<path class="st0" d="M743.2,166.5c2.6-5.4,2.5-7.3,1.2-8.2c-1.5-1.2-2.9-0.3-6.6,3.5c-79.5,81-131.4,105.3-209.7,105.3
		c-102.6,0-144.4-79.1-246.9-104.4c-56.4-13.9-124.8,1.7-170.5,28.8c-3.2,1.9-6.2,3.5-5.5,5.8c0.5,1.9,2.1,2.1,7.7,1.2
		c167.5-27.2,195.4,72.8,317,117.7C619.2,386.1,726.3,201.1,743.2,166.5"/>
	<path class="st0" d="M1616.3,189.4c0-4.9-3.5-8.4-8.4-8.4c-4.9,0-8.4,3.5-8.4,8.4c0,4.9,3.5,8.4,8.4,8.4
		C1612.8,197.8,1616.3,194.3,1616.3,189.4 M1614.9,210.4h-14v67.1h14V210.4z M1586.9,210.4h-16.8l-28.7,30.1v-60.8h-14v97.8h14
		v-18.9l10.5-11.2l21.7,30.1h15.4l-28-39.1L1586.9,210.4z M1459.1,210.4h-14v67.1h14v-36.3c0-12.6,7-19.6,17.5-19.6
		c9.1,0,16.1,7,16.1,16.8v39.1h14v-39.1c0-18.2-11.2-29.3-27.3-29.3c-12.6,0-20.3,8.4-20.3,8.4V210.4z M1393.4,266.3
		c-7.7,0-11.9-4.2-11.9-8.4c0-4.9,3.5-8.2,8.4-9.1l21.7-3.5v1.4C1411.5,259.3,1404.6,266.3,1393.4,266.3 M1425.5,277.4v-43.3
		c0-14-11.2-25.2-28-25.2c-17.5,0-26.6,12.6-26.6,12.6l9.1,9.1c0,0,5.6-9.1,17.5-9.1c8.4,0,14,5.6,14,12.6l-24.5,4.2
		c-11.9,2.1-19.6,9.8-19.6,21c0,9.8,9.8,19.6,23.8,19.6c12.6,0,20.3-8.4,20.3-8.4v7H1425.5z M1322.1,266.3
		c-10.5,0-20.3-9.8-20.3-22.4c0-12.6,9.8-22.4,20.3-22.4c10.5,0,20.3,9.8,20.3,22.4C1342.4,256.5,1332.6,266.3,1322.1,266.3
		 M1323.5,209c-13.3,0-21.7,9.1-21.7,9.1v-38.4h-14v97.8h14v-7.7c0,0,8.4,9.1,21.7,9.1c17.5,0,32.8-15.4,32.8-34.9
		S1341,209,1323.5,209 M1268.3,218c0,0-7-9.1-21.7-9.1c-14,0-23.8,9.8-23.8,19.6c0,23.8,34.2,16.8,34.2,29.4c0,4.9-3.5,8.4-11.2,8.4
		c-10.5,0-16.8-8.4-16.8-8.4l-9.1,9.1c0,0,8.4,11.9,25.9,11.9c15.4,0,25.2-9.8,25.2-21c0-23.8-34.2-16.8-34.2-29.4
		c0-3.5,3.5-7,9.8-7c7.7,0,12.6,5.6,12.6,5.6L1268.3,218z M1170.5,266.3c-10.5,0-20.3-9.8-20.3-22.4c0-12.6,9.8-22.4,20.3-22.4
		s20.3,9.8,20.3,22.4C1190.7,256.5,1180.9,266.3,1170.5,266.3 M1169.1,209c-17.5,0-32.8,15.4-32.8,34.9s15.4,34.9,32.8,34.9
		c13.3,0,21.7-9.1,21.7-9.1v7.7h14v-97.8h-14V218C1190.7,218,1182.3,209,1169.1,209 M1073.3,210.4h-14v67.1h14v-36.3
		c0-12.6,7-19.6,17.5-19.6c9.1,0,16.1,7,16.1,16.8v39.1h14v-39.1c0-18.2-11.2-29.3-27.3-29.3c-12.6,0-20.3,8.4-20.3,8.4V210.4z
		 M1007.6,266.3c-7.7,0-11.9-4.2-11.9-8.4c0-4.9,3.5-8.2,8.4-9.1l21.7-3.5v1.4C1025.8,259.3,1018.8,266.3,1007.6,266.3
		 M1039.8,277.4v-43.3c0-14-11.2-25.2-28-25.2c-17.5,0-26.6,12.6-26.6,12.6l9.1,9.1c0,0,5.6-9.1,17.5-9.1c8.4,0,14,5.6,14,12.6
		l-24.5,4.2c-11.9,2.1-19.6,9.8-19.6,21c0,9.8,9.8,19.6,23.8,19.6c12.6,0,20.3-8.4,20.3-8.4v7H1039.8z M965,179.6h-14v97.8h14V179.6
		z M931.5,218c0,0-7-9.1-21.7-9.1c-14,0-23.8,9.8-23.8,19.6c0,23.8,34.2,16.8,34.2,29.4c0,4.9-3.5,8.4-11.2,8.4
		c-10.5,0-16.8-8.4-16.8-8.4l-9.1,9.1c0,0,8.4,11.9,25.9,11.9c15.4,0,25.2-9.8,25.2-21c0-23.8-34.2-16.8-34.2-29.4
		c0-3.5,3.5-7,9.8-7c7.7,0,12.6,5.6,12.6,5.6L931.5,218z M853.2,167h10.5l14.7-19.6h-14.7L853.2,167z M850.4,277.4h15.4v-97.8h-15.4
		V277.4z"/>
</g>
</svg>
